<svg xmlns="http://www.w3.org/2000/svg" width="1440" viewBox="0 0 1440 288" height="288" version="1.0"><g fill="#3D93C2"><g><g><path d="M 28.5625 1.65625 C 15.59375 1.65625 6.140625 -2.410156 0.203125 -10.546875 C -5.734375 -18.691406 -7.046875 -29.867188 -3.734375 -44.078125 L 15.109375 -126.03125 C 19.242188 -143.695312 25.863281 -157.007812 34.96875 -165.96875 C 44.070312 -174.9375 56.144531 -179.421875 71.1875 -179.421875 C 84.289062 -179.421875 94.015625 -175.832031 100.359375 -168.65625 C 106.710938 -161.488281 108.300781 -151.144531 105.125 -137.625 L 98.09375 -107 L 62.703125 -107 L 68.90625 -133.28125 C 70.007812 -138.382812 70.179688 -141.898438 69.421875 -143.828125 C 68.671875 -145.765625 66.773438 -146.734375 63.734375 -146.734375 C 60.566406 -146.734375 58.117188 -145.628906 56.390625 -143.421875 C 54.660156 -141.210938 53.316406 -137.96875 52.359375 -133.6875 L 31.65625 -44.5 C 30.695312 -39.800781 30.628906 -36.382812 31.453125 -34.25 C 32.273438 -32.113281 34.066406 -31.046875 36.828125 -31.046875 C 42.347656 -31.046875 46.144531 -35.53125 48.21875 -44.5 L 55.671875 -76.578125 L 91.46875 -76.578125 L 83.8125 -43.046875 C 76.914062 -13.242188 58.5 1.65625 28.5625 1.65625 Z M 28.5625 1.65625" transform="translate(21.012 227.26)"/></g></g></g><g fill="#3D93C2"><g><g><path d="M 28.5625 -177.765625 L 83.1875 -177.765625 C 91.882812 -177.765625 98.160156 -175.796875 102.015625 -171.859375 C 105.878906 -167.929688 107.8125 -162.414062 107.8125 -155.3125 C 107.8125 -148.207031 106.570312 -139.140625 104.09375 -128.109375 C 101.75 -118.035156 98.609375 -110.171875 94.671875 -104.515625 C 90.742188 -98.859375 85.257812 -94.925781 78.21875 -92.71875 C 83.320312 -91.613281 86.597656 -88.921875 88.046875 -84.640625 C 89.503906 -80.367188 89.40625 -74.578125 87.75 -67.265625 L 71.8125 0 L 37.046875 0 L 52.96875 -69.53125 C 54.21875 -74.5 54.015625 -77.671875 52.359375 -79.046875 C 50.703125 -80.429688 47.320312 -81.125 42.21875 -81.125 L 23.59375 0 L -12.421875 0 Z M 58.15625 -111.96875 C 63.113281 -111.96875 66.835938 -117.347656 69.328125 -128.109375 C 70.429688 -132.796875 71.015625 -136.3125 71.078125 -138.65625 C 71.148438 -141 70.738281 -142.617188 69.84375 -143.515625 C 68.945312 -144.410156 67.460938 -144.859375 65.390625 -144.859375 L 57.109375 -144.859375 L 49.671875 -111.96875 Z M 58.15625 -111.96875" transform="translate(119.108 227.26)"/></g></g></g><g fill="#3D93C2"><g><g><path d="M 29.59375 1.65625 C 15.238281 1.65625 5.335938 -2.722656 -0.109375 -11.484375 C -5.554688 -20.242188 -6.414062 -32.554688 -2.6875 -48.421875 L 16.765625 -133.078125 C 20.347656 -148.390625 26.757812 -159.941406 36 -167.734375 C 45.25 -175.523438 57.046875 -179.421875 71.390625 -179.421875 C 85.742188 -179.421875 95.75 -175.523438 101.40625 -167.734375 C 107.0625 -159.941406 108.09375 -148.390625 104.5 -133.078125 L 85.046875 -48.421875 C 81.328125 -32.421875 74.738281 -20.070312 65.28125 -11.375 C 55.832031 -2.6875 43.9375 1.65625 29.59375 1.65625 Z M 37.046875 -31.046875 C 40.210938 -31.046875 42.691406 -32.425781 44.484375 -35.1875 C 46.285156 -37.945312 47.738281 -41.804688 48.84375 -46.765625 L 68.90625 -133.6875 C 69.738281 -137.550781 69.945312 -140.691406 69.53125 -143.109375 C 69.113281 -145.523438 67.320312 -146.734375 64.15625 -146.734375 C 58.21875 -146.734375 54.210938 -142.25 52.140625 -133.28125 L 32.078125 -46.5625 C 30.835938 -41.457031 30.523438 -37.59375 31.140625 -34.96875 C 31.765625 -32.351562 33.734375 -31.046875 37.046875 -31.046875 Z M 37.046875 -31.046875" transform="translate(217.825 227.26)"/></g></g></g><g fill="#3D93C2"><g><g><path d="M 29.390625 1.65625 C 13.242188 1.65625 2.515625 -2.34375 -2.796875 -10.34375 C -8.109375 -18.34375 -8.695312 -31.242188 -4.5625 -49.046875 L -0.625 -66.4375 L 34.34375 -66.4375 L 29.171875 -44.28125 C 27.109375 -35.457031 28.90625 -31.046875 34.5625 -31.046875 C 37.726562 -31.046875 40.171875 -31.972656 41.890625 -33.828125 C 43.617188 -35.691406 44.96875 -38.832031 45.9375 -43.25 C 47.320312 -49.039062 47.738281 -53.832031 47.1875 -57.625 C 46.632812 -61.425781 45.597656 -64.601562 44.078125 -67.15625 C 42.554688 -69.707031 39.660156 -73.675781 35.390625 -79.0625 L 23.59375 -94.375 C 14.488281 -105.957031 11.519531 -118.785156 14.6875 -132.859375 C 18.132812 -148.035156 24.273438 -159.585938 33.109375 -167.515625 C 41.941406 -175.453125 53.046875 -179.421875 66.421875 -179.421875 C 82.429688 -179.421875 92.988281 -175.175781 98.09375 -166.6875 C 103.195312 -158.207031 103.609375 -144.929688 99.328125 -126.859375 L 63.109375 -126.859375 L 65.8125 -139.078125 C 66.363281 -141.421875 66.15625 -143.28125 65.1875 -144.65625 C 64.21875 -146.039062 62.5625 -146.734375 60.21875 -146.734375 C 57.457031 -146.734375 55.179688 -145.972656 53.390625 -144.453125 C 51.597656 -142.929688 50.425781 -140.863281 49.875 -138.25 C 48.488281 -132.445312 50.421875 -126.441406 55.671875 -120.234375 L 71.8125 -100.375 C 75.53125 -95.675781 78.492188 -91.222656 80.703125 -87.015625 C 82.910156 -82.816406 84.320312 -77.851562 84.9375 -72.125 C 85.5625 -66.394531 84.976562 -59.597656 83.1875 -51.734375 C 79.050781 -34.210938 72.738281 -20.929688 64.25 -11.890625 C 55.769531 -2.859375 44.148438 1.65625 29.390625 1.65625 Z M 29.390625 1.65625" transform="translate(318.404 227.26)"/></g></g></g><g fill="#DB5461"><g><g><path d="M 1.515625 0 L 9.890625 -86.703125 L 39.265625 -86.703125 L 47.546875 0 L 31.09375 0 L 29.875 -14.03125 L 19.375 -14.03125 L 18.375 0 Z M 20.6875 -27.859375 L 28.5625 -27.859375 L 24.734375 -71.96875 L 23.921875 -71.96875 Z M 20.6875 -27.859375" transform="translate(968.644 185.067)"/></g></g></g><g fill="#DB5461"><g><g><path d="M 3.828125 -86.703125 L 26.75 -86.703125 C 33.675781 -86.703125 38.617188 -84.460938 41.578125 -79.984375 C 44.546875 -75.515625 46.03125 -68.972656 46.03125 -60.359375 C 46.03125 -51.742188 44.71875 -45.25 42.09375 -40.875 C 39.46875 -36.5 34.753906 -34.3125 27.953125 -34.3125 L 20.890625 -34.3125 L 20.890625 0 L 3.828125 0 Z M 21.90625 -49.96875 C 23.988281 -49.96875 25.515625 -50.351562 26.484375 -51.125 C 27.460938 -51.894531 28.101562 -53.003906 28.40625 -54.453125 C 28.71875 -55.898438 28.875 -57.96875 28.875 -60.65625 C 28.875 -64.289062 28.46875 -66.914062 27.65625 -68.53125 C 26.851562 -70.144531 25.238281 -70.953125 22.8125 -70.953125 L 20.890625 -70.953125 L 20.890625 -49.96875 Z M 21.90625 -49.96875" transform="translate(1017.592 185.067)"/></g></g></g><g fill="#DB5461"><g><g><path d="M 3.03125 0 L 3.03125 -86.703125 L 19.78125 -86.703125 L 19.78125 0 Z M 3.03125 0" transform="translate(1065.229 185.067)"/></g></g></g><g fill="#DB5461"><g><g><path d="M 3.828125 -86.703125 L 30.484375 -86.703125 C 34.722656 -86.703125 38.003906 -85.742188 40.328125 -83.828125 C 42.648438 -81.910156 44.210938 -79.21875 45.015625 -75.75 C 45.828125 -72.289062 46.234375 -67.867188 46.234375 -62.484375 C 46.234375 -57.566406 45.59375 -53.726562 44.3125 -50.96875 C 43.03125 -48.207031 40.8125 -46.289062 37.65625 -45.21875 C 40.28125 -44.675781 42.179688 -43.363281 43.359375 -41.28125 C 44.535156 -39.195312 45.125 -36.375 45.125 -32.8125 L 44.921875 0 L 27.953125 0 L 27.953125 -33.921875 C 27.953125 -36.335938 27.484375 -37.878906 26.546875 -38.546875 C 25.609375 -39.222656 23.894531 -39.5625 21.40625 -39.5625 L 21.40625 0 L 3.828125 0 Z M 25.640625 -54.609375 C 28.054688 -54.609375 29.265625 -57.234375 29.265625 -62.484375 C 29.265625 -64.765625 29.164062 -66.476562 28.96875 -67.625 C 28.769531 -68.769531 28.398438 -69.5625 27.859375 -70 C 27.316406 -70.4375 26.539062 -70.65625 25.53125 -70.65625 L 21.5 -70.65625 L 21.5 -54.609375 Z M 25.640625 -54.609375" transform="translate(1111.755 185.067)"/></g></g></g><g fill="#DB5461"><g><g><path d="M 24.21875 0.8125 C 16.613281 0.8125 11.160156 -1.269531 7.859375 -5.4375 C 4.566406 -9.613281 2.921875 -15.84375 2.921875 -24.125 L 2.921875 -53.796875 C 2.921875 -60.597656 4.875 -65.78125 8.78125 -69.34375 C 12.6875 -72.90625 18.140625 -74.6875 25.140625 -74.6875 C 39.335938 -74.6875 46.4375 -67.722656 46.4375 -53.796875 L 46.4375 -48.453125 C 46.4375 -43.066406 46.367188 -38.691406 46.234375 -35.328125 L 20.59375 -35.328125 L 20.59375 -21 C 20.59375 -18.4375 20.859375 -16.429688 21.390625 -14.984375 C 21.929688 -13.535156 23.078125 -12.8125 24.828125 -12.8125 C 26.171875 -12.8125 27.128906 -13.210938 27.703125 -14.015625 C 28.273438 -14.828125 28.613281 -15.753906 28.71875 -16.796875 C 28.820312 -17.847656 28.875 -19.382812 28.875 -21.40625 L 28.875 -28.5625 L 46.4375 -28.5625 L 46.4375 -24.328125 C 46.4375 -15.710938 44.769531 -9.367188 41.4375 -5.296875 C 38.101562 -1.222656 32.363281 0.8125 24.21875 0.8125 Z M 28.875 -44.109375 L 28.875 -53.59375 C 28.875 -58.914062 27.5625 -61.578125 24.9375 -61.578125 C 21.96875 -61.578125 20.484375 -58.914062 20.484375 -53.59375 L 20.484375 -44.109375 Z M 28.875 -44.109375" transform="translate(1159.896 185.067)"/></g></g></g><g fill="#DB5461"><g><g><path d="M 23.828125 0.8125 C 9.222656 0.8125 1.921875 -6.59375 1.921875 -21.40625 L 2.015625 -27.25 L 19.6875 -27.25 L 19.78125 -18.578125 C 19.78125 -16.828125 20.113281 -15.492188 20.78125 -14.578125 C 21.457031 -13.671875 22.570312 -13.21875 24.125 -13.21875 C 26.476562 -13.21875 27.65625 -15.132812 27.65625 -18.96875 C 27.65625 -21.800781 27.097656 -24.023438 25.984375 -25.640625 C 24.878906 -27.253906 23.113281 -28.96875 20.6875 -30.78125 L 11.3125 -38.046875 C 8.070312 -40.535156 5.742188 -43.109375 4.328125 -45.765625 C 2.921875 -48.429688 2.21875 -52.1875 2.21875 -57.03125 C 2.21875 -60.800781 3.207031 -64.015625 5.1875 -66.671875 C 7.175781 -69.328125 9.816406 -71.328125 13.109375 -72.671875 C 16.410156 -74.015625 20.082031 -74.6875 24.125 -74.6875 C 38.457031 -74.6875 45.625 -67.554688 45.625 -53.296875 L 45.625 -51.875 L 27.359375 -51.875 L 27.359375 -54.703125 C 27.359375 -56.453125 27.070312 -57.945312 26.5 -59.1875 C 25.925781 -60.4375 24.96875 -61.0625 23.625 -61.0625 C 22.40625 -61.0625 21.476562 -60.707031 20.84375 -60 C 20.207031 -59.300781 19.890625 -58.34375 19.890625 -57.125 C 19.890625 -54.4375 20.929688 -52.351562 23.015625 -50.875 L 33.921875 -42.90625 C 37.816406 -40.007812 40.804688 -36.859375 42.890625 -33.453125 C 44.984375 -30.054688 46.03125 -25.769531 46.03125 -20.59375 C 46.03125 -13.726562 44.078125 -8.441406 40.171875 -4.734375 C 36.265625 -1.035156 30.816406 0.8125 23.828125 0.8125 Z M 23.828125 0.8125" transform="translate(1209.147 185.067)"/></g></g></g><g fill="#DB5461"><g><g><path d="M 17.765625 0.8125 C 12.242188 0.8125 8.457031 -0.832031 6.40625 -4.125 C 4.351562 -7.425781 3.328125 -12.34375 3.328125 -18.875 L 3.328125 -73.890625 L 21.09375 -73.890625 L 21.09375 -22.40625 C 21.09375 -21.9375 21.09375 -20.675781 21.09375 -18.625 C 21.09375 -16.570312 21.410156 -15.125 22.046875 -14.28125 C 22.691406 -13.4375 23.6875 -13.015625 25.03125 -13.015625 C 26.851562 -13.015625 28 -13.769531 28.46875 -15.28125 C 28.9375 -16.800781 29.171875 -18.972656 29.171875 -21.796875 L 29.171875 -22.40625 L 29.265625 -73.890625 L 46.828125 -73.890625 L 46.828125 0 L 29.171875 0 L 29.171875 -7.875 C 27.960938 -4.78125 26.550781 -2.554688 24.9375 -1.203125 C 23.320312 0.140625 20.929688 0.8125 17.765625 0.8125 Z M 17.765625 0.8125" transform="translate(1257.086 185.067)"/></g></g></g><g fill="#DB5461"><g><g><path d="M 3.53125 0 L 3.53125 -87.203125 L 21.5 -87.203125 L 21.5 0 Z M 3.53125 0" transform="translate(1307.448 185.067)"/></g></g></g><g fill="#DB5461"><g><g><path d="M 18.78125 0.8125 C 14.132812 0.8125 10.9375 -0.160156 9.1875 -2.109375 C 7.4375 -4.066406 6.5625 -7.195312 6.5625 -11.5 L 6.5625 -57.640625 L 1.609375 -57.640625 L 1.609375 -71.0625 L 6.5625 -71.0625 L 6.5625 -86.703125 L 23.71875 -86.703125 L 23.71875 -71.0625 L 28.765625 -71.0625 L 28.765625 -57.640625 L 23.71875 -57.640625 L 23.71875 -16.15625 C 23.71875 -14.875 23.816406 -13.929688 24.015625 -13.328125 C 24.222656 -12.722656 24.765625 -12.421875 25.640625 -12.421875 C 26.304688 -12.421875 26.941406 -12.453125 27.546875 -12.515625 C 28.160156 -12.585938 28.566406 -12.625 28.765625 -12.625 L 28.765625 -0.5 C 27.753906 -0.226562 26.289062 0.0546875 24.375 0.359375 C 22.457031 0.660156 20.59375 0.8125 18.78125 0.8125 Z M 18.78125 0.8125" transform="translate(1332.477 185.067)"/></g></g></g><g fill="#DB5461"><g><g><path d="M 40.859375 -4.34375 L 35.046875 1.578125 L 9.8125 -23.65625 L 35.046875 -48.890625 L 40.859375 -42.921875 L 21.59375 -23.65625 Z M 40.859375 -4.34375" transform="translate(800.487 175.769)"/></g></g></g><g fill="#DB5461"><g><g><path d="M 38.34375 -67.328125 L 45.9375 -63.578125 L 8.1875 12.421875 L 0.59375 8.671875 Z M 38.34375 -67.328125" transform="translate(855.582 175.769)"/></g></g></g><g fill="#DB5461"><g><g><path d="M 24.34375 -23.65625 L 5.03125 -42.921875 L 10.890625 -48.890625 L 36.125 -23.65625 L 10.890625 1.578125 L 5.03125 -4.34375 Z M 24.34375 -23.65625" transform="translate(910.677 175.769)"/></g></g></g><g fill="#3D93C2"><g><g><path d="M 29.390625 1.65625 C 13.242188 1.65625 2.515625 -2.34375 -2.796875 -10.34375 C -8.109375 -18.351562 -8.695312 -31.253906 -4.5625 -49.046875 L -0.625 -66.4375 L 34.359375 -66.4375 L 29.171875 -44.296875 C 27.109375 -35.460938 28.90625 -31.046875 34.5625 -31.046875 C 37.726562 -31.046875 40.175781 -31.976562 41.90625 -33.84375 C 43.632812 -35.707031 44.976562 -38.84375 45.9375 -43.25 C 47.320312 -49.050781 47.738281 -53.847656 47.1875 -57.640625 C 46.632812 -61.429688 45.597656 -64.601562 44.078125 -67.15625 C 42.554688 -69.707031 39.660156 -73.675781 35.390625 -79.0625 L 23.59375 -94.375 C 14.488281 -105.96875 11.519531 -118.800781 14.6875 -132.875 C 18.132812 -148.050781 24.273438 -159.601562 33.109375 -167.53125 C 41.941406 -175.46875 53.050781 -179.4375 66.4375 -179.4375 C 82.4375 -179.4375 92.988281 -175.191406 98.09375 -166.703125 C 103.195312 -158.222656 103.613281 -144.945312 99.34375 -126.875 L 63.125 -126.875 L 65.8125 -139.078125 C 66.363281 -141.421875 66.15625 -143.28125 65.1875 -144.65625 C 64.226562 -146.039062 62.570312 -146.734375 60.21875 -146.734375 C 57.457031 -146.734375 55.179688 -145.972656 53.390625 -144.453125 C 51.597656 -142.941406 50.425781 -140.875 49.875 -138.25 C 48.5 -132.457031 50.429688 -126.457031 55.671875 -120.25 L 71.8125 -100.375 C 75.539062 -95.6875 78.507812 -91.238281 80.71875 -87.03125 C 82.925781 -82.820312 84.335938 -77.851562 84.953125 -72.125 C 85.578125 -66.40625 84.992188 -59.613281 83.203125 -51.75 C 79.054688 -34.21875 72.738281 -20.929688 64.25 -11.890625 C 55.769531 -2.859375 44.148438 1.65625 29.390625 1.65625 Z M 29.390625 1.65625" transform="translate(418.563 227.47)"/></g></g></g><g fill="#FFF"><g><g><path d="M -12.421875 0 L 28.5625 -177.78125 L 99.75 -177.78125 L 91.890625 -143.421875 L 56.90625 -143.421875 L 48.84375 -108.859375 L 82.375 -108.859375 L 74.71875 -75.34375 L 41.1875 -75.34375 L 31.65625 -34.5625 L 68.921875 -34.5625 L 61.046875 0 Z M -12.421875 0" transform="translate(610.82 227.47)"/></g></g></g><g fill="#FFF"><g><g><path d="M -12.421875 0 L 28.5625 -177.78125 L 99.75 -177.78125 L 91.890625 -143.21875 L 56.5 -143.21875 L 49.875 -114.875 L 83.40625 -114.875 L 75.546875 -80.71875 L 42.015625 -80.71875 L 23.390625 0 Z M -12.421875 0" transform="translate(696.09 227.47)"/></g></g></g><g fill="#FFF"><g><g><path d="M 28.5625 -177.78125 L 83.203125 -177.78125 C 91.890625 -177.78125 98.164062 -175.8125 102.03125 -171.875 C 105.894531 -167.945312 107.828125 -162.429688 107.828125 -155.328125 C 107.828125 -148.222656 106.582031 -139.148438 104.09375 -128.109375 C 101.75 -118.035156 98.609375 -110.171875 94.671875 -104.515625 C 90.742188 -98.859375 85.265625 -94.925781 78.234375 -92.71875 C 83.335938 -91.613281 86.613281 -88.921875 88.0625 -84.640625 C 89.507812 -80.367188 89.40625 -74.578125 87.75 -67.265625 L 71.8125 0 L 37.046875 0 L 52.984375 -69.546875 C 54.222656 -74.515625 54.015625 -77.6875 52.359375 -79.0625 C 50.703125 -80.4375 47.320312 -81.125 42.21875 -81.125 L 23.59375 0 L -12.421875 0 Z M 58.15625 -111.96875 C 63.125 -111.96875 66.847656 -117.347656 69.328125 -128.109375 C 70.429688 -132.804688 71.015625 -136.328125 71.078125 -138.671875 C 71.148438 -141.015625 70.738281 -142.632812 69.84375 -143.53125 C 68.945312 -144.425781 67.460938 -144.875 65.390625 -144.875 L 57.125 -144.875 L 49.671875 -111.96875 Z M 58.15625 -111.96875" transform="translate(511.801 227.253)"/></g></g></g></svg>